<?xml version="1.0" encoding="UTF-8" standalone="no"?>
<!DOCTYPE svg PUBLIC "-//W3C//DTD SVG 1.1//EN" "http://www.w3.org/Graphics/SVG/1.1/DTD/svg11.dtd">
<svg width="100%" height="100%" viewBox="0 0 98 91" version="1.1" xmlns="http://www.w3.org/2000/svg" xmlns:xlink="http://www.w3.org/1999/xlink" xml:space="preserve" style="fill-rule:evenodd;clip-rule:evenodd;stroke-linejoin:round;stroke-miterlimit:1.41421;">
    <g transform="matrix(1,0,0,1,-1.3,-4.91)">
        <path d="M62.009,66.06L60.229,64.279L47.453,77.032L39.729,69.308L37.95,71.089L47.453,80.593L62.009,66.06Z" style="fill-rule:nonzero;"/>
    </g>
    <g transform="matrix(1,0,0,1,-1.3,-4.91)">
        <path d="M20.353,47.307L23.625,50.59C30.157,43.445 39.534,38.919 49.974,38.919C60.403,38.919 69.767,43.445 76.311,50.59L79.583,47.307C72.194,39.324 61.674,34.283 49.974,34.283C38.262,34.282 27.729,39.323 20.353,47.307Z" style="fill-rule:nonzero;"/>
        <path d="M10.71,37.34L13.994,40.612C23.012,30.999 35.776,24.958 49.973,24.958C64.147,24.958 76.923,30.999 85.929,40.612L89.213,37.34C79.362,26.888 65.431,20.316 49.973,20.316C34.504,20.316 20.573,26.889 10.71,37.34Z" style="fill-rule:nonzero;"/>
        <path d="M49.974,4.91C30.828,4.91 13.566,12.968 1.3,25.836L4.572,29.12C16.005,17.096 32.1,9.546 49.974,9.546C67.826,9.546 83.93,17.095 95.365,29.12L98.649,25.836C86.358,12.968 69.097,4.91 49.974,4.91Z" style="fill-rule:nonzero;"/>
        <path d="M49.974,95.091C36.91,95.091 26.296,84.465 26.296,71.413C26.296,58.349 36.91,47.711 49.974,47.711C63.028,47.711 73.653,58.348 73.653,71.413C73.652,84.465 63.027,95.091 49.974,95.091ZM49.974,50.671C38.551,50.671 29.256,59.979 29.256,71.413C29.256,82.835 38.551,92.131 49.974,92.131C61.397,92.131 70.692,82.835 70.692,71.413C70.691,59.979 61.396,50.671 49.974,50.671Z" style="fill-rule:nonzero;"/>
    </g>
</svg>
