<svg xmlns="http://www.w3.org/2000/svg" xmlns:xlink="http://www.w3.org/1999/xlink" 
	version="1.1" x="0px" y="0px" viewBox="0 0 100 100" style="enable-background:new 0 0 100 100;" xml:space="preserve">
	<path d="M49.3,12.8L2.1,44.5l4,6l9.5-6.4v43.4h68.3V44.4l9.2,6.1l4-6L49.3,12.8z M49,75.5c-9.3,0-16.9-7.6-16.9-16.9
		c0-9.3,7.6-16.9,16.9-16.9c9.3,0,16.9,7.6,16.9,16.9C65.9,67.9,58.3,75.5,49,75.5z"/>
	<path d="M49,46.3c-6.8,0-12.4,5.6-12.4,12.4C36.6,65.5,42.2,71,49,71c6.8,0,12.4-5.6,12.4-12.4C61.4,51.8,55.8,46.3,49,46.3z
		M56.4,56.4l-7.6,7.6c-0.4,0.4-0.9,0.6-1.5,0.6s-1.1-0.2-1.5-0.6l-4.1-4.1c-0.8-0.8-0.8-2.2,0-3c0.8-0.8,2.2-0.8,3,0l2.6,2.6
		l6.1-6.1c0.8-0.8,2.2-0.8,3,0C57.2,54.2,57.2,55.5,56.4,56.4z"/>
</svg>
