<?xml version="1.0" encoding="UTF-8" standalone="no"?>
<!DOCTYPE svg PUBLIC "-//W3C//DTD SVG 1.1//EN" "http://www.w3.org/Graphics/SVG/1.1/DTD/svg11.dtd">
<svg width="100%" height="100%" viewBox="0 0 16 17" version="1.1" xmlns="http://www.w3.org/2000/svg" xmlns:xlink="http://www.w3.org/1999/xlink" xml:space="preserve" style="fill-rule:evenodd;clip-rule:evenodd;stroke-linejoin:round;stroke-miterlimit:1.41421;">
    <g transform="matrix(1,0,0,1,-4.369,-3.898)">
        <path d="M5.657,19.458L5.657,15.27C5.657,14.914 5.369,14.626 5.013,14.626C4.657,14.626 4.369,14.914 4.369,15.27L4.369,19.459C4.369,19.815 4.657,20.103 5.013,20.103C5.369,20.103 5.657,19.814 5.657,19.458Z" style="fill-rule:nonzero;"/>
        <path d="M8.506,20.103C8.862,20.103 9.15,19.815 9.15,19.459L9.15,12.837C9.15,12.481 8.862,12.193 8.506,12.193C8.15,12.193 7.862,12.481 7.862,12.837L7.862,19.459C7.862,19.814 8.151,20.103 8.506,20.103Z" style="fill-rule:nonzero;"/>
        <path d="M11.356,10.808L11.356,19.458C11.356,19.814 11.644,20.102 12,20.102C12.356,20.102 12.644,19.814 12.644,19.458L12.644,10.808C12.644,10.452 12.356,10.164 12,10.164C11.644,10.164 11.356,10.453 11.356,10.808Z" style="fill-rule:nonzero;"/>
        <path d="M14.85,7.562L14.85,19.459C14.85,19.815 15.138,20.103 15.494,20.103C15.85,20.103 16.138,19.815 16.138,19.459L16.138,7.562C16.138,7.206 15.85,6.918 15.494,6.918C15.138,6.918 14.85,7.206 14.85,7.562Z" style="fill-rule:nonzero;"/>
        <path d="M18.987,20.103C19.343,20.103 19.631,19.815 19.631,19.459L19.631,4.542C19.631,4.186 19.343,3.898 18.987,3.898C18.631,3.898 18.343,4.186 18.343,4.542L18.343,19.459C18.343,19.814 18.632,20.103 18.987,20.103Z" style="fill-rule:nonzero;"/>
    </g>
</svg>
